<svg width="256" height="256" viewBox="0 0 256 256" fill="none" xmlns="http://www.w3.org/2000/svg">
  <style>
    #icon {
      fill: #171717;
    }
    @media (prefers-color-scheme: dark) {
      #icon {
        fill: #F3F3F3;
      }
    }
</style>
  <path id="icon" fill-rule="evenodd" clip-rule="evenodd" d="M58.9663 15H73.3483V46.625H120.809V15H135.191V46.625H182.652V15H197.034V46.625H241.618H256V61V89.75V104.125V153V167.375V197.562V211.938H241.618H197.034V245H182.652V211.938H135.191V245H120.809V211.938H73.3483V245H58.9663V211.938H14.382H0V197.562V167.375V153V104.125V89.75V61V46.625H14.382H58.9663V15ZM14.382 197.562V167.375H28.764H43.1461V153V104.125V89.75H28.764H14.382V61H58.9663V197.562H14.382ZM14.382 153V104.125H28.764V153H14.382ZM227.236 153H241.618V104.125H227.236V153ZM241.618 89.75V61H197.034V197.562H241.618V167.375H227.236H212.854V153V104.125V89.75H227.236H241.618ZM73.3483 61V197.562H120.809V166.711C102.799 163.34 89.1685 147.542 89.1685 128.562C89.1685 109.583 102.799 93.7849 120.809 90.4142V61H73.3483ZM120.809 105.199C110.815 108.268 103.551 117.567 103.551 128.562C103.551 139.558 110.815 148.857 120.809 151.926V105.199ZM135.191 151.926V105.199C145.185 108.268 152.449 117.567 152.449 128.562C152.449 139.558 145.185 148.857 135.191 151.926ZM135.191 166.711C153.201 163.34 166.831 147.542 166.831 128.562C166.831 109.583 153.201 93.7849 135.191 90.4142V61H182.652V197.562H135.191V166.711Z" />
</svg>