<svg width="27" height="24" viewBox="0 0 27 24" fill="none" xmlns="http://www.w3.org/2000/svg">
<path fill-rule="evenodd" clip-rule="evenodd" d="M6.2191 0H7.73595V3.3H12.7416V0H14.2584V3.3H19.264V0H20.7809V3.3H25.4831H27V4.8V7.8V9.3V14.4V15.9V19.05V20.55H25.4831H20.7809V24H19.264V20.55H14.2584V24H12.7416V20.55H7.73595V24H6.2191V20.55H1.51685H0V19.05V15.9V14.4V9.3V7.8V4.8V3.3H1.51685H6.2191V0ZM1.51685 19.05V15.9H3.03371H4.55056V14.4V9.3V7.8H3.03371H1.51685V4.8H6.2191V19.05H1.51685ZM1.51685 14.4V9.3H3.03371V14.4H1.51685ZM23.9663 14.4H25.4831V9.3H23.9663V14.4ZM25.4831 7.8V4.8H20.7809V19.05H25.4831V15.9H23.9663H22.4494V14.4V9.3V7.8H23.9663H25.4831ZM7.73595 4.8V19.05H12.7416V15.8307C10.842 15.479 9.40449 13.8305 9.40449 11.85C9.40449 9.8695 10.842 8.22103 12.7416 7.86931V4.8H7.73595ZM12.7416 9.41208C11.6876 9.73235 10.9213 10.7027 10.9213 11.85C10.9213 12.9973 11.6876 13.9676 12.7416 14.2879V9.41208ZM14.2584 14.2879V9.41208C15.3124 9.73235 16.0787 10.7027 16.0787 11.85C16.0787 12.9973 15.3124 13.9676 14.2584 14.2879ZM14.2584 15.8307C16.158 15.479 17.5955 13.8305 17.5955 11.85C17.5955 9.8695 16.158 8.22103 14.2584 7.86931V4.8H19.264V19.05H14.2584V15.8307Z" fill="#F3F3F3"/>
</svg>
