<svg width="150" height="150" viewBox="0 0 150 150" fill="none" xmlns="http://www.w3.org/2000/svg">
<rect width="150" height="150" fill="#4A4A4A"/>
<path d="M52.0217 104C52.2712 98.2637 54.6595 92.8136 58.7365 88.7365C63.0499 84.4232 68.9 82 75 82C81.1 82 86.9501 84.4232 91.2635 88.7365C95.3405 92.8136 97.7288 98.2637 97.9783 104H93.9737C93.7275 99.3252 91.7618 94.8917 88.435 91.565C84.8718 88.0018 80.0391 86 75 86C69.9609 86 65.1282 88.0018 61.565 91.565C58.2382 94.8917 56.2725 99.3252 56.0263 104H52.0217ZM75 77C65.6073 77 58 69.3927 58 60C58 50.6073 65.6073 43 75 43C84.3927 43 92 50.6073 92 60C92 69.3927 84.3927 77 75 77ZM75 73C82.1823 73 88 67.1823 88 60C88 52.8177 82.1823 47 75 47C67.8177 47 62 52.8177 62 60C62 67.1823 67.8177 73 75 73Z" fill="#F3F3F3" stroke="#4A4A4A" stroke-width="2"/>
</svg>
